<?xml version="1.0" encoding="UTF-8" standalone="no"?>
<!-- Created with Inkscape (http://www.inkscape.org/) -->

<svg
   width="26.989817mm"
   height="26.987988mm"
   viewBox="0 0 26.989817 26.987988"
   version="1.1"
   id="svg1"
   xmlns="http://www.w3.org/2000/svg"
   xmlns:svg="http://www.w3.org/2000/svg">
  <defs
     id="defs1" />
  <g
     id="layer2"
     style="stroke:#ffffff;stroke-width:0.529167;stroke-linecap:butt;stroke-linejoin:miter;stroke-miterlimit:4;stroke-dasharray:none;stroke-opacity:1;paint-order:stroke fill markers"
     transform="matrix(0.98108498,0,0,0.97771474,0.24820339,-33.934105)">
    <path
       style="fill:#000000;fill-opacity:1;stroke:#ffffff;stroke-width:1.0806;stroke-linecap:butt;stroke-linejoin:miter;stroke-miterlimit:4;stroke-dasharray:none;stroke-opacity:1;paint-order:stroke fill markers"
       d="M 2.7842719,61.734793 C 2.2412353,61.709726 2.0954163,61.672711 1.6802537,61.454552 1.1150086,61.157522 0.69843213,60.677489 0.44786937,60.034432 0.3478392,59.777712 0.3431281,59.742904 0.31781409,59.073532 0.3033681,58.69154 0.29076718,56.354938 0.28981205,53.881084 l -0.001737,-4.497917 3.26554635,-2.606693 3.2655459,-2.606691 0.00837,5.513131 0.00837,5.513131 2.629301,3.286466 2.6293007,3.286464 -4.407067,-0.0056 c -2.4238886,-0.0031 -4.6303112,-0.01595 -4.9031628,-0.02855 z"
       id="path10" />
    <path
       style="fill:#0381c7;fill-opacity:1;stroke:#ffffff;stroke-width:1.0806;stroke-linecap:butt;stroke-linejoin:miter;stroke-miterlimit:4;stroke-dasharray:none;stroke-opacity:1;paint-order:stroke fill markers"
       d="m 26.681388,59.264881 c -0.02498,0.544909 -0.06187,0.691232 -0.279277,1.107825 -0.296011,0.567193 -0.774395,0.985205 -1.415243,1.236633 -0.255838,0.100375 -0.290525,0.105101 -0.957599,0.130502 -0.38068,0.0145 -2.709254,0.02714 -5.17461,0.0281 l -4.482465,0.0017 -2.597739,-3.276803 -2.597735,-3.276802 5.494191,-0.0084 5.494192,-0.0084 3.275175,-2.638365 3.275176,-2.638364 -0.0056,4.422258 c -0.0031,2.432245 -0.01591,4.646272 -0.02845,4.920064 z"
       id="path10-5" />
    <path
       style="fill:#0381c7;fill-opacity:1;stroke:#ffffff;stroke-width:1.0806;stroke-linecap:butt;stroke-linejoin:miter;stroke-miterlimit:4;stroke-dasharray:none;stroke-opacity:1;paint-order:stroke fill markers"
       d="m 0.32280565,37.753394 c 0.02498,-0.544909 0.06187,-0.691231 0.279278,-1.107824 0.29601,-0.567193 0.77439395,-0.985206 1.41524195,-1.236633 0.255838,-0.100375 0.290526,-0.105102 0.957599,-0.130503 0.38068,-0.0145 2.709255,-0.02714 5.174611,-0.0281 l 4.4824654,-0.0017 2.597739,3.276803 2.597736,3.276802 -5.494192,0.0084 -5.4941924,0.0084 -3.275177,2.638365 -3.27517395,2.638365 0.0056,-4.422259 c 0.0031,-2.432245 0.0159,-4.646272 0.02845,-4.920065 z"
       id="path10-8" />
    <path
       style="fill:#000000;fill-opacity:1;stroke:#ffffff;stroke-width:1.0806;stroke-linecap:butt;stroke-linejoin:miter;stroke-miterlimit:4;stroke-dasharray:none;stroke-opacity:1;paint-order:stroke fill markers"
       d="m 24.219963,35.283482 c 0.543036,0.02507 0.688856,0.06208 1.104019,0.280241 0.565245,0.297029 0.981821,0.777063 1.232384,1.420119 0.10003,0.25672 0.104741,0.291529 0.130055,0.960901 0.01444,0.381992 0.02704,2.718594 0.028,5.192448 l 0.0017,4.497916 -3.265545,2.606694 -3.265547,2.606691 -0.0084,-5.513131 -0.0084,-5.513131 -2.629301,-3.286466 -2.629301,-3.286464 4.407067,0.0056 c 2.423889,0.0031 4.630312,0.01595 4.903164,0.02855 z"
       id="path10-7" />
  </g>
  <g
     id="layer1"
     style="display:none"
     transform="translate(0.26574111,0.26482735)">
    <text
       xml:space="preserve"
       style="font-size:4.57658px;text-align:center;writing-mode:lr-tb;direction:ltr;text-anchor:middle;display:inline;fill:#ffffff;fill-opacity:1;stroke:#000000;stroke-width:0.858112;stroke-dasharray:none;stroke-opacity:1;paint-order:stroke fill markers"
       x="13.515217"
       y="12.170552"
       id="text1-7-6"><tspan
         id="tspan1-6-1"
         style="font-style:normal;font-variant:normal;font-weight:normal;font-stretch:normal;font-size:4.57658px;font-family:'Sector 034';-inkscape-font-specification:'Sector 034, ';text-align:center;text-anchor:middle;fill:#ffffff;fill-opacity:1;stroke:#000000;stroke-width:0.858112;stroke-dasharray:none;stroke-opacity:1;paint-order:stroke fill markers"
         x="13.515217"
         y="12.170552">Query</tspan><tspan
         style="font-style:normal;font-variant:normal;font-weight:normal;font-stretch:normal;font-size:4.57658px;font-family:'Sector 034';-inkscape-font-specification:'Sector 034, ';text-align:center;text-anchor:middle;fill:#ffffff;fill-opacity:1;stroke:#000000;stroke-width:0.858112;stroke-dasharray:none;stroke-opacity:1;paint-order:stroke fill markers"
         x="13.515217"
         y="17.891277"
         id="tspan11">Link</tspan></text>
  </g>
</svg>
